<?xml version="1.0"?>
<svg xmlns="http://www.w3.org/2000/svg" id="_x31__x2C_5" enable-background="new 0 0 24 24" height="512px" viewBox="0 0 24 24" width="512px" class="hovered-paths"><g><path d="m18.525 22.8h-13.05c-1.365 0-2.475-1.11-2.475-2.475v-16.65c0-1.365 1.11-2.475 2.475-2.475h13.05c1.365 0 2.475 1.11 2.475 2.475v16.65c0 1.365-1.11 2.475-2.475 2.475z" fill="#eceff1" data-original="#ECEFF1" class="hovered-path active-path" style="fill:#C5E3F6" data-old_color="#eceff1"/><path d="m9.321 12v-3.25h-2.901c-.37 0-.67.336-.67.75v2.5z" fill="#2196f3" data-original="#2196F3" class=""/><path d="m9.812 12.75h8.438v3.5h-8.438z" fill="#90caf9" data-original="#90CAF9" class="" style="fill:#17B978" data-old_color="#90caf9"/><path d="m9.75 12.75h8.5v-3.077c0-.51-.336-.923-.75-.923h-7.75z" fill="#2196f3" data-original="#2196F3" class=""/><path d="m10.156 16.594v3.25h7.38c.394 0 .714-.336.714-.75v-2.5z" fill="#2196f3" data-original="#2196F3" class=""/><path d="m5.438 12.75h4.312v3.5h-4.312z" fill="#90caf9" data-original="#90CAF9" class="" style="fill:#17B978" data-old_color="#90caf9"/><path d="m9.321 16.25h-3.509v3.029c0 .502.295.909.658.909h2.851z" fill="#2196f3" data-original="#2196F3" class=""/><path d="m18.25 21h-12.5c-.414 0-.75-.336-.75-.75v-11.5c0-.414.336-.75.75-.75h12.5c.414 0 .75.336.75.75v11.5c0 .414-.336.75-.75.75zm-11.75-1.5h11v-10h-11z" data-original="#000000" class="" style="fill:#A7FF83" data-old_color="#000000"/><path d="m9.75 21c-.414 0-.75-.336-.75-.75v-11.5c0-.414.336-.75.75-.75s.75.336.75.75v11.5c0 .414-.336.75-.75.75z" data-original="#000000" class="" style="fill:#A7FF83" data-old_color="#000000"/><path d="m18.25 13.5h-12.5c-.414 0-.75-.336-.75-.75s.336-.75.75-.75h12.5c.414 0 .75.336.75.75s-.336.75-.75.75z" data-original="#000000" class="" style="fill:#A7FF83" data-old_color="#000000"/><path d="m18.25 17h-12.5c-.414 0-.75-.336-.75-.75s.336-.75.75-.75h12.5c.414 0 .75.336.75.75s-.336.75-.75.75z" data-original="#000000" class="" style="fill:#A7FF83" data-old_color="#000000"/><path d="m19.25 24h-14.5c-1.517 0-2.75-1.233-2.75-2.75v-18.5c0-1.517 1.233-2.75 2.75-2.75h14.5c1.517 0 2.75 1.233 2.75 2.75v18.5c0 1.517-1.233 2.75-2.75 2.75zm-14.5-22.5c-.689 0-1.25.561-1.25 1.25v18.5c0 .689.561 1.25 1.25 1.25h14.5c.689 0 1.25-.561 1.25-1.25v-18.5c0-.689-.561-1.25-1.25-1.25z" data-original="#000000" class="" style="fill:#A7FF83" data-old_color="#000000"/></g> </svg>
